<?xml version="1.0" encoding="utf-8"?>
<svg x="0px" y="0px" width="100px" height="100px" viewBox="0 0 100 100" xmlns="http://www.w3.org/2000/svg" xmlns:xlink="http://www.w3.org/1999/xlink">
    <path id="robot" style="fill:#00be62;fill-opacity:1;fill-rule:nonzero;opacity:1;stroke:none;" d="M49.9414,0.000458112 C47.8734,0.0327654,46.2223,1.73405,46.252,3.8021 C46.252,5.05142,46.252,6.30075,46.252,7.55007 C40.4218,7.55007,34.5917,7.55007,28.7615,7.55007 C22.5624,7.55007,17.5176,12.5948,17.5176,18.794 C17.5176,26.2899,17.5176,33.7859,17.5176,41.2818 C17.5176,47.481,22.5624,52.5257,28.7615,52.5257 C42.9205,52.5257,57.0795,52.5257,71.2385,52.5257 C77.4376,52.5257,82.4824,47.481,82.4824,41.2818 C82.4824,33.7859,82.4824,26.2899,82.4824,18.794 C82.4824,12.5948,77.4376,7.55007,71.2385,7.55007 C65.4083,7.55007,59.5781,7.55007,53.748,7.55007 C53.748,6.30075,53.748,5.05142,53.748,3.8021 C53.7625,2.7886,53.366,1.81243,52.6488,1.09616 C51.9316,0.379902,50.9549,-0.0153834,49.9414,0.000458112 z M38.7561,22.542 C42.2067,22.542,45.0027,25.3379,45.0027,28.7886 C45.0027,32.2392,42.2067,35.0352,38.7561,35.0352 C35.3055,35.0352,32.5095,32.2392,32.5095,28.7886 C32.5095,25.3379,35.3055,22.542,38.7561,22.542 z M61.2439,22.542 C64.6945,22.542,67.4905,25.3379,67.4905,28.7886 C67.4905,32.2392,64.6945,35.0352,61.2439,35.0352 C57.7933,35.0352,54.9973,32.2392,54.9973,28.7886 C54.9973,25.3379,57.7933,22.542,61.2439,22.542 z M21.2656,60.0217 C15.0664,60.0217,10.0216,65.0664,10.0216,71.2656 C10.0216,71.9,10.0216,72.5344,10.0216,73.1688 C10.0216,79.0532,12.4691,84.7052,16.7368,88.678 C22.2813,93.8428,32.5519,100,50,100 C67.4481,100,77.7212,93.8428,83.2632,88.678 C87.5334,84.7052,89.9783,79.0507,89.9783,73.1688 C89.9783,72.5344,89.9783,71.9,89.9783,71.2656 C89.9783,65.0664,84.9336,60.0217,78.7344,60.0217 C78.7344,60.0217,21.2656,60.0217,21.2656,60.0217 z"/>
</svg>
